<svg xmlns="http://www.w3.org/2000/svg" viewBox="0 0 512 512">
  <defs>
    <linearGradient id="bg" x1="0" y1="0" x2="0" y2="1">
      <stop offset="0" stop-color="#12182A"/>
      <stop offset="1" stop-color="#0A0A0B"/>
    </linearGradient>
    <linearGradient id="pin" x1="0" y1="0" x2="0" y2="1">
      <stop offset="0" stop-color="#8FBEFF"/>
      <stop offset="1" stop-color="#5B93F5"/>
    </linearGradient>
  </defs>
  <rect width="512" height="512" rx="112" fill="url(#bg)"/>
  <path d="M256 108a132 132 0 0 1 132 132c0 98-132 236-132 236S124 338 124 240A132 132 0 0 1 256 108Z" fill="url(#pin)"/>
  <g transform="translate(256 232)" fill="#0A0F1C">
    <rect x="-58" y="-24" width="116" height="80" rx="16"/>
    <path d="M-24 -24v-14a16 16 0 0 1 16-16h16a16 16 0 0 1 16 16v14" fill="none" stroke="#0A0F1C" stroke-width="14" stroke-linecap="round"/>
  </g>
  <rect x="212" y="216" width="88" height="20" rx="6" fill="#8FBEFF"/>
</svg>
